<svg xmlns="http://www.w3.org/2000/svg" xmlns:xlink="http://www.w3.org/1999/xlink" fill="none" version="1.1" width="32" height="32" viewBox="0 0 32 32"><defs><clipPath id="master_svg0_1_050"><rect x="0" y="0" width="32" height="32" rx="0"/></clipPath><clipPath id="master_svg1_1_052"><rect x="4" y="4" width="24" height="24" rx="0"/></clipPath></defs><g clip-path="url(#master_svg0_1_050)"><g><rect x="0" y="0" width="32" height="32" rx="8" fill="#171717" fill-opacity="1"/></g><g clip-path="url(#master_svg1_1_052)"><g><path d="M8.6347,12.220488803405761L7.707107,11.292888803405761Q7.566455,11.152238803405762,7.382683,11.076118803405762Q7.198912,10.999998803405761,7,10.999998803405761Q6.9015086,10.999998803405761,6.80491,11.019218803405762Q6.708311,11.038428803405761,6.617317,11.076118803405762Q6.526322,11.113808803405762,6.44443,11.168528803405762Q6.362537,11.223248803405761,6.292893,11.292888803405761Q6.223249,11.362538803405762,6.16853,11.444428803405762Q6.113812,11.526318803405761,6.076121,11.617318803405762Q6.03843,11.708308803405762,6.019215,11.804908803405763Q6,11.901508803405761,6,11.999998803405761Q6,12.198908803405761,6.0761199999999995,12.382678803405762Q6.152241,12.566458803405762,6.292893,12.707108803405761L6.293207,12.707418803405762L8.29289,14.707108803405761Q8.36254,14.776748803405763,8.44443,14.831468803405762Q8.52632,14.886188803405762,8.61732,14.923878803405762Q8.70831,14.961568803405761,8.80491,14.980788803405762Q8.90151,14.999998803405763,9,14.999998803405763Q9.09849,14.999998803405763,9.19509,14.980788803405762Q9.29169,14.961568803405761,9.38268,14.923878803405762Q9.47368,14.886188803405762,9.55557,14.831468803405762Q9.63746,14.776748803405763,9.70711,14.707108803405761Q9.85226,14.561948803405762,9.92849,14.371348803405763L11.42549,10.628348803405762Q11.68319,9.983800803405762,12.377040000000001,9.999738803405762Q12.38852,9.999998803405761,12.4,9.999998803405761L19.646,9.999998803405761Q20.3229,10.006658803405761,20.563200000000002,10.649948803405762Q20.5681,10.662898803405762,20.5733,10.675708803405762L22.0733,14.375708803405761Q22.110300000000002,14.466978803405762,22.1644,14.549278803405763Q22.2185,14.631588803405762,22.287599999999998,14.701748803405762Q22.3567,14.771918803405761,22.438200000000002,14.827258803405762Q22.5197,14.882588803405762,22.6104,14.920968803405762Q22.7011,14.95933880340576,22.7975,14.979288803405762Q22.894,14.999228803405762,22.9925,14.99996880340576Q23.0909,15.00071880340576,23.1877,14.98222880340576Q23.2844,14.96373880340576,23.3757,14.926738803405762Q23.5637,14.850528803405762,23.7071,14.707108803405761L25.7061,12.708078803405762L25.7071,12.707108803405761Q25.8478,12.566458803405762,25.9239,12.382678803405762Q26,12.198908803405761,26,11.999998803405761Q26,11.901508803405761,25.9808,11.804908803405763Q25.9616,11.708308803405762,25.9239,11.617318803405762Q25.8862,11.526318803405761,25.8315,11.444428803405762Q25.7767,11.362538803405762,25.7071,11.292888803405761Q25.6375,11.223248803405761,25.5556,11.168528803405762Q25.4737,11.113808803405762,25.3827,11.076118803405762Q25.2917,11.038428803405761,25.1951,11.019218803405762Q25.0985,10.999998803405761,25,10.999998803405761Q24.8011,10.999998803405761,24.6173,11.076118803405762Q24.4335,11.152238803405762,24.2929,11.292888803405761L23.3598,12.225948803405762L22.4315,9.935969803405762Q22.104799999999997,9.073696203405762,21.3488,8.543578803405762Q20.5866,8.009139803405763,19.646,7.999999803405761L12.410440000000001,7.999999803405761Q11.47893,7.982158803405762,10.70062,8.496261803405762Q9.917069999999999,9.013821603405761,9.56851,9.885651803405763L8.6347,12.220488803405761Z" fill-rule="evenodd" fill="#FAFAFA" fill-opacity="1" style="mix-blend-mode:passthrough"/></g><g><path d="M11,17Q10.9015086,17,10.80491,17.019215Q10.708311,17.038429999999998,10.617317,17.076121Q10.526322,17.113812,10.44443,17.16853Q10.362537,17.223249,10.292893,17.292893Q10.223249,17.362537,10.16853,17.44443Q10.113812,17.526322,10.076121,17.617317Q10.03843,17.708311,10.019214999999999,17.80491Q10,17.9015086,10,18Q10,18.0984914,10.019214999999999,18.19509Q10.03843,18.291689,10.076121,18.382683Q10.113812,18.473678,10.16853,18.55557Q10.223249,18.637463,10.292893,18.707107Q10.362537,18.776751,10.44443,18.83147Q10.526322,18.886188,10.617317,18.923879Q10.708311,18.961570000000002,10.80491,18.980785Q10.9015086,19,11,19L11.0100002,19L11,17Z" fill-rule="evenodd" fill="#FAFAFA" fill-opacity="1" style="mix-blend-mode:passthrough"/></g><g><path d="M21,17Q20.9015086,17,20.80491,17.019215Q20.708311,17.038429999999998,20.617317,17.076121Q20.526322,17.113812,20.44443,17.16853Q20.362537,17.223249,20.292893,17.292893Q20.223249,17.362537,20.16853,17.44443Q20.113812,17.526322,20.076121,17.617317Q20.038429999999998,17.708311,20.019215,17.80491Q20,17.9015086,20,18Q20,18.0984914,20.019215,18.19509Q20.038429999999998,18.291689,20.076121,18.382683Q20.113812,18.473678,20.16853,18.55557Q20.223249,18.637463,20.292893,18.707107Q20.362537,18.776751,20.44443,18.83147Q20.526322,18.886188,20.617317,18.923879Q20.708311,18.961570000000002,20.80491,18.980785Q20.9015086,19,21,19L21.0100002,19L21,17Z" fill-rule="evenodd" fill="#FAFAFA" fill-opacity="1" style="mix-blend-mode:passthrough"/></g><g><path d="M6,20L6,16Q6,14.757359,6.87868,13.87868Q7.757359,13,9,13L23,13Q24.2426,13,25.1213,13.87868Q26,14.75736,26,16L26,20Q26,21.24264,25.1213,22.12132Q24.2426,23,23,23L9,23Q7.757359,23,6.87868,22.12132Q6,21.24264,6,20ZM8,20Q8,20.41421,8.29289,20.70711Q8.58579,21,9,21L23,21Q23.4142,21,23.7071,20.70711Q24,20.41421,24,20L24,16Q24,15.58579,23.7071,15.29289Q23.4142,15,23,15L9,15Q8.58579,15,8.29289,15.29289Q8,15.58579,8,16L8,20Z" fill="#FAFAFA" fill-opacity="1" style="mix-blend-mode:passthrough"/></g><g><path d="M8,22Q8,21.9015086,8.019214999999999,21.80491Q8.03843,21.708311,8.076121,21.617317Q8.113812,21.526322,8.16853,21.44443Q8.223249,21.362537,8.292893,21.292893Q8.362537,21.223249,8.44443,21.16853Q8.526322,21.113812,8.617317,21.076121Q8.708311,21.038429999999998,8.80491,21.019215Q8.9015086,21,9,21Q9.0984914,21,9.19509,21.019215Q9.291689,21.038429999999998,9.382683,21.076121Q9.473678,21.113812,9.55557,21.16853Q9.637463,21.223249,9.707107,21.292893Q9.776751,21.362537,9.83147,21.44443Q9.886188,21.526322,9.923879,21.617317Q9.96157,21.708311,9.980785000000001,21.80491Q10,21.9015086,10,22L10,24Q10,24.098489999999998,9.980785000000001,24.19509Q9.96157,24.29169,9.923879,24.38268Q9.886188,24.47368,9.83147,24.55557Q9.776751,24.63746,9.707107,24.70711Q9.637463,24.77675,9.55557,24.83147Q9.473678,24.88619,9.382683,24.92388Q9.291689,24.961570000000002,9.19509,24.98078Q9.0984914,25,9,25Q8.9015086,25,8.80491,24.98078Q8.708311,24.961570000000002,8.617317,24.92388Q8.526322,24.88619,8.44443,24.83147Q8.362537,24.77675,8.292893,24.70711Q8.223249,24.63746,8.16853,24.55557Q8.113812,24.47368,8.076121,24.38268Q8.03843,24.29169,8.019214999999999,24.19509Q8,24.098489999999998,8,24L8,22Z" fill-rule="evenodd" fill="#FAFAFA" fill-opacity="1" style="mix-blend-mode:passthrough"/></g><g><path d="M22,22Q22,21.9015086,22.019215,21.80491Q22.038429999999998,21.708311,22.076121,21.617317Q22.113812,21.526322,22.16853,21.44443Q22.223249,21.362537,22.292893,21.292893Q22.362537,21.223249,22.44443,21.16853Q22.526322,21.113812,22.617317,21.076121Q22.708311,21.038429999999998,22.80491,21.019215Q22.9015086,21,23,21Q23.0984914,21,23.19509,21.019215Q23.291689,21.038429999999998,23.382683,21.076121Q23.473678,21.113812,23.55557,21.16853Q23.637463,21.223249,23.707107,21.292893Q23.776751,21.362537,23.83147,21.44443Q23.886188,21.526322,23.923879,21.617317Q23.961570000000002,21.708311,23.980785,21.80491Q24,21.9015086,24,22L24,24Q24,24.098489999999998,23.980785,24.19509Q23.961570000000002,24.29169,23.923879,24.38268Q23.886188,24.47368,23.83147,24.55557Q23.776751,24.63746,23.707107,24.70711Q23.637463,24.77675,23.55557,24.83147Q23.473678,24.88619,23.382683,24.92388Q23.291689,24.961570000000002,23.19509,24.98078Q23.0984914,25,23,25Q22.9015086,25,22.80491,24.98078Q22.708311,24.961570000000002,22.617317,24.92388Q22.526322,24.88619,22.44443,24.83147Q22.362537,24.77675,22.292893,24.70711Q22.223249,24.63746,22.16853,24.55557Q22.113812,24.47368,22.076121,24.38268Q22.038429999999998,24.29169,22.019215,24.19509Q22,24.098489999999998,22,24L22,22Z" fill-rule="evenodd" fill="#FAFAFA" fill-opacity="1" style="mix-blend-mode:passthrough"/></g></g></g></svg>